<svg width="65" height="47" viewBox="0 0 65 47" fill="none" xmlns="http://www.w3.org/2000/svg">
<path d="M55.6671 39.9028C53.4543 35.0893 53.3306 28.0731 55.6671 24.8441C61.5936 16.2467 56.1685 9.07003 54.1094 6.7335C48.1862 -0.0888744 35.4808 0.566291 30.9381 3.81202C27.7258 6.34241 24.089 10.4639 25.4862 18.483C26.2082 21.6752 26.2483 21.6685 24.7073 23.2864C22.6483 26.1644 22.4577 27.204 22.7185 27.916C23.494 28.5878 24.9413 28.3606 26.4622 28.2202C25.8505 29.1962 25.3157 30.1522 24.9146 31.0748C24.8344 31.2553 24.9246 31.4692 25.1085 31.5361C25.5029 31.6731 25.9408 31.6832 26.3419 31.6263C26.6461 31.5862 26.8433 31.9305 26.6494 32.1678C26.3653 32.5088 26.1246 32.8832 26.0879 33.2576C26.0745 33.3879 26.1413 33.5149 26.2583 33.5784L27.1174 34.0631C26.8065 36.2158 27.1274 38.3785 28.5882 38.8331C30.7609 39.2376 34.488 39.0938 38.0312 37.8303C39.9766 37.1384 41.8619 36.1055 43.4062 34.6447" stroke="#1D232E" stroke-width="2" stroke-linecap="round" stroke-linejoin="round"/>
<path d="M40.1539 41.7213C39.95 39.5987 39.111 38.4856 37.8608 38.021" stroke="#1D232E" stroke-width="2" stroke-linecap="round" stroke-linejoin="round"/>
<path d="M62.9995 37.0056L55.669 44.3361L52.3369 41.0041" stroke="#01AD08" stroke-width="2.0056" stroke-linecap="round" stroke-linejoin="round"/>
<path d="M1.67334 17.3533C1.67334 17.5873 1.67334 23.6904 1.67334 26.7127" stroke="#1D232E" stroke-width="2" stroke-linecap="round"/>
<path d="M14.0731 22.3454L13.2106 23.2112L13.682 23.6825L15.3533 22.0112L13.682 20.3398L13.2106 20.8112L14.0731 21.6769H8.66797V22.3454H14.0731Z" fill="#01AD08"/>
</svg>
