<svg width="56" height="39" viewBox="0 0 56 39" fill="none" xmlns="http://www.w3.org/2000/svg">
<circle cx="12.1198" cy="12.413" r="2.57518" fill="#97D1FF"/>
<rect x="5.60397" y="16.0613" width="13.0326" height="17.3767" fill="#97D1FF"/>
<rect x="21.6414" y="11.2765" width="17.3206" height="3.33088" fill="#97D1FF"/>
<rect x="21.6414" y="16.7534" width="7.99412" height="1.33235" fill="#97D1FF"/>
<rect x="21.6414" y="20.2318" width="10.9919" height="1.33235" fill="#97D1FF"/>
<rect x="21.6414" y="23.7101" width="24.6485" height="1.33235" fill="#97D1FF"/>
<rect x="21.6414" y="27.1885" width="19.9853" height="1.33235" fill="#97D1FF"/>
<rect x="21.6414" y="30.6667" width="19.9853" height="1.33235" fill="#97D1FF"/>
<path d="M2.4197 37.7872H49.8274C50.609 37.7872 51.2426 37.1536 51.2426 36.3721V19.3416C51.2426 18.9238 51.058 18.5274 50.7382 18.2585L36.0707 5.9245C35.8157 5.71003 35.4931 5.59245 35.1599 5.59245H2.4197C1.63813 5.59245 1.00455 6.22603 1.00455 7.0076V36.3721C1.00455 37.1536 1.63813 37.7872 2.4197 37.7872Z" stroke="#1D232E" stroke-width="2"/>
<path d="M45.3827 0.285594V8.84286L40.6287 0.285594H45.3827Z" fill="#FF393E"/>
<path d="M50.7706 0.285594L46.492 9.31826L55.3662 5.51503L50.7706 0.285594Z" fill="#FF393E"/>
<path d="M55.8416 10.4275H47.2843L55.8416 15.1816V10.4275Z" fill="#FF393E"/>
<path d="M45.3827 0.285594V8.84286L40.6287 0.285594H45.3827Z" stroke="#FF393E" stroke-width="0.315502"/>
<path d="M50.7706 0.285594L46.492 9.31826L55.3662 5.51503L50.7706 0.285594Z" stroke="#FF393E" stroke-width="0.315502"/>
<path d="M55.8416 10.4275H47.2843L55.8416 15.1816V10.4275Z" stroke="#FF393E" stroke-width="0.315502"/>
</svg>
