<svg width="28" height="10" viewBox="0 0 28 10" fill="none" xmlns="http://www.w3.org/2000/svg">
<path opacity="0.8" d="M20.8121 1.21896C21.999 1.16454 24.4375 1.01148 25.519 1.94674C26.6005 2.882 25.9135 6.92233 24.5599 8.17047C23.203 9.41862 20.0673 9.4016 18.377 8.54117C16.6868 7.68073 15.9862 4.3376 16.3807 3.12007C16.7752 1.90253 17.3091 1.3822 20.8121 1.21896Z" fill="#46425B" fill-opacity="0.8"/>
<path opacity="0.8" d="M7.05873 1.21896C5.8718 1.16454 3.43334 1.01148 2.35184 1.94674C1.27035 2.882 1.95734 6.92233 3.31091 8.17047C4.66789 9.41862 7.80355 9.4016 9.49382 8.54117C11.1841 7.68073 11.8847 4.3376 11.4902 3.12007C11.0957 1.90253 10.5617 1.3822 7.05873 1.21896Z" fill="#46425B" fill-opacity="0.8"/>
<path d="M27.4879 0.671299C26.0493 0.310799 22.1144 -0.0598867 20.669 0.00813212C17.4722 0.161174 16.309 0.565874 15.7241 1.3991C15.4792 1.50793 14.8738 1.71879 13.891 1.71879C12.8027 1.71879 12.1667 1.45353 11.9864 1.3651C11.3709 0.620298 10.1669 0.249591 7.1435 0.106752C5.7015 0.0387331 1.76662 0.40944 0.324618 0.769939C-0.120905 0.88217 -0.0596871 2.15072 0.21919 2.27996C0.712326 2.50442 0.753134 3.68453 0.895973 4.75583C1.09663 6.26245 1.90606 8.13637 2.58285 8.77574C4.2323 10.33 8.04815 10.313 10.1023 9.23826C11.7382 8.38463 12.6088 5.57546 12.6564 3.69814C12.9013 3.48728 13.2924 3.27643 13.8842 3.27643C14.5167 3.27643 14.9112 3.49408 15.1459 3.71174C15.2241 5.58906 16.0948 8.30642 17.6966 9.14305C19.7508 10.2177 23.5666 10.2348 25.2161 8.68053C25.8929 8.04115 26.7023 6.16723 26.903 4.66061C27.0458 3.58932 27.0866 2.40918 27.5797 2.18472C27.862 2.05889 27.9232 0.786934 27.4743 0.674703L27.4879 0.671299ZM9.49356 8.53767C7.80329 9.39811 4.66423 9.41513 3.31065 8.16698C1.95368 6.91884 1.27009 2.87853 2.35158 1.94327C3.43308 1.00801 5.87155 1.16105 7.05847 1.21546C10.5614 1.37871 11.0954 1.89904 11.4899 3.11657C11.8844 4.33411 11.1838 7.67723 9.49356 8.53767ZM24.5563 8.16698C23.1993 9.41513 20.0637 9.39811 18.3734 8.53767C16.6831 7.67723 15.9825 4.33411 16.3771 3.11657C16.7716 1.89904 17.3055 1.37871 20.8085 1.21546C21.9954 1.16105 24.4339 1.00801 25.5154 1.94327C26.5969 2.87853 25.9099 6.91884 24.5563 8.16698Z" fill="#1D232E"/>
<g style="mix-blend-mode:overlay" opacity="0.2">
<path d="M4.87844 6.53796C4.87844 4.41237 6.21501 2.59968 8.09573 1.89569C7.78965 1.86848 7.44274 1.84467 7.05843 1.82766C6.02795 1.78005 3.90918 1.64741 2.97052 2.46023C2.03186 3.27306 2.62701 6.78283 3.80373 7.86773C4.18123 8.21463 4.71519 8.44929 5.31715 8.58192C5.03487 7.95955 4.87503 7.26916 4.87503 6.53796H4.87844Z" fill="#1D232E"/>
</g>
<g style="mix-blend-mode:overlay" opacity="0.2">
<path d="M19.4552 6.58904C19.4552 4.34102 20.938 2.43649 22.982 1.80392C22.2882 1.76991 21.6148 1.80392 21.1523 1.82773C18.0778 1.97057 17.6085 2.42628 17.2616 3.49758C16.9147 4.56547 17.5303 7.5005 19.0131 8.25551C19.2648 8.38475 19.5538 8.49018 19.8667 8.5752C19.6049 7.96643 19.4552 7.29644 19.4552 6.58904Z" fill="#1D232E"/>
</g>
</svg>
