<svg width="14" height="14" viewBox="0 0 14 14" fill="none" xmlns="http://www.w3.org/2000/svg">
<path d="M7.69998 14H6.29998V11.9H7.69998V14ZM11.4548 12.4446L9.97007 10.9599L10.9599 9.97007L12.4453 11.4555L11.4562 12.4446H11.4548ZM2.54519 12.4446L1.5547 11.4548L3.03869 9.96937L4.02919 10.9592L2.54519 12.4439V12.4446ZM6.99998 10.5049C5.06446 10.5041 3.49597 8.93456 3.49649 6.99905C3.497 5.06353 5.06633 3.49483 7.00185 3.49509C8.93736 3.49535 10.5063 5.06446 10.5063 6.99998C10.5043 8.93542 8.93542 10.5037 6.99998 10.5049ZM6.99998 4.89509C5.83766 4.89586 4.89597 5.83859 4.89649 7.00091C4.897 8.16323 5.83953 9.10513 7.00185 9.10487C8.16416 9.10461 9.10627 8.1623 9.10627 6.99998C9.10511 5.83741 8.16255 4.89547 6.99998 4.89509ZM14 7.69998H11.9V6.29998H14V7.69998ZM2.09999 7.69998H0V6.29998H2.09999V7.69998ZM10.9592 4.03059L9.97007 3.04009L11.4548 1.5547L12.4453 2.54519L10.9599 4.02989L10.9592 4.03059ZM3.04009 4.03059L1.5561 2.54589L2.54659 1.5561L4.03059 3.04149L3.04079 4.02989L3.04009 4.03059ZM7.69998 2.09999H6.29998V0H7.69998V2.09999Z" fill="#1D232E"/>
</svg>
