<svg width="39" height="49" viewBox="0 0 39 49" fill="none" xmlns="http://www.w3.org/2000/svg">
<path d="M15.8666 10.5743L16.2971 9.65879L15.8068 9.42832L15.3432 9.70857L15.8666 10.5743ZM26.7023 13.0171L27.0522 13.9663L27.714 13.7224V13.0171H26.7023ZM25.6443 10.0436L26.0162 9.10278L23.2569 8.01199L24.7751 10.5612L25.6443 10.0436ZM35.0715 15.7728V16.7844C35.5464 16.7844 35.9574 16.454 36.0595 15.9901L35.0715 15.7728ZM29.2131 3.93685L28.5345 4.68717C28.71 4.84589 28.9355 4.93807 29.172 4.94768L29.2131 3.93685ZM10.4845 15.9939L10.5012 17.0054C10.7954 17.0006 11.0729 16.8679 11.2613 16.642C11.4498 16.416 11.5306 16.1193 11.4826 15.829L10.4845 15.9939ZM9.61353 21.1923L10.6187 21.0777C10.6054 20.9612 10.572 20.8478 10.5198 20.7427L9.61353 21.1923ZM12.2127 25.1115L13.2006 24.8935C13.1389 24.6136 12.9612 24.373 12.7118 24.2315C12.4625 24.0901 12.1648 24.0611 11.8928 24.1518L12.2127 25.1115ZM17.6833 34.4095L17.1201 35.2498L17.1207 35.2502L17.6833 34.4095ZM22.4497 35.954L22.3994 36.9644C22.4089 36.9649 22.4184 36.9652 22.4278 36.9655L22.4497 35.954ZM33.6154 24.7135L33.9801 23.7698C33.7148 23.6673 33.4186 23.6812 33.164 23.8081C32.9095 23.935 32.7201 24.1632 32.6423 24.4368L33.6154 24.7135ZM36.5208 20.6616L35.6769 20.1036C35.5905 20.2343 35.5356 20.3833 35.5166 20.5389L36.5208 20.6616ZM35.0681 15.7728L34.7253 14.8209C34.2628 14.9875 33.9869 15.4624 34.0715 15.9467C34.156 16.431 34.5765 16.7844 35.0681 16.7844V15.7728ZM10.59 37.6381L10.5941 38.6497C10.6045 38.6497 10.6148 38.6495 10.6252 38.6491L10.59 37.6381ZM15.4362 11.4899C17.0685 12.2573 18.9195 13.3051 20.7686 13.9204C22.6879 14.5591 24.775 14.8055 27.0522 13.9663L26.3525 12.0678C24.6322 12.7018 23.0383 12.5433 21.4075 12.0006C19.7064 11.4345 18.1383 10.5244 16.2971 9.65879L15.4362 11.4899ZM27.714 13.0171C27.714 11.8376 27.1708 10.6297 26.5135 9.52596L24.7751 10.5612C25.3902 11.5941 25.6907 12.407 25.6907 13.0171H27.714ZM25.2724 10.9844C29.0494 12.4775 31.0305 14.208 31.2419 16.278L33.2548 16.0724C32.9133 12.7289 29.8154 10.6046 26.0162 9.10278L25.2724 10.9844ZM14.3184 16.2429C14.2441 15.0037 14.3849 14.042 14.714 13.2859C15.0356 12.547 15.5649 11.9389 16.39 11.4401L15.3432 9.70857C14.1926 10.4042 13.3625 11.3211 12.8588 12.4784C12.3626 13.6185 12.2123 14.9242 12.2987 16.364L14.3184 16.2429ZM36.0595 15.9901C36.9986 11.7221 37.0127 8.50624 35.8358 6.29359C34.596 3.96269 32.2226 3.0467 29.2542 2.92601L29.172 4.94768C31.8102 5.05494 33.2965 5.82809 34.0494 7.24374C34.8653 8.77766 35.0053 11.3658 34.0834 15.5554L36.0595 15.9901ZM29.8916 3.18652C25.3745 -0.898733 19.7051 -0.770173 15.4736 1.95512C11.2574 4.67056 8.46134 9.9542 9.48633 16.1588L11.4826 15.829C10.5922 10.4392 13.015 5.94522 16.5692 3.65618C20.1081 1.37698 24.7607 1.27419 28.5345 4.68717L29.8916 3.18652ZM10.4677 14.9824C9.8647 14.9924 9.2424 15.095 8.70917 15.4009C8.13816 15.7285 7.74387 16.2479 7.57898 16.919C7.42425 17.5488 7.48343 18.2572 7.67333 19.007C7.86552 19.7659 8.21069 20.6408 8.70724 21.6418L10.5198 20.7427C10.0604 19.8165 9.77956 19.0822 9.63474 18.5103C9.48762 17.9294 9.49874 17.5855 9.54388 17.4018C9.57886 17.2594 9.63238 17.204 9.71606 17.156C9.83753 17.0863 10.0768 17.0125 10.5012 17.0054L10.4677 14.9824ZM8.60838 21.3069C8.78385 22.8462 9.10067 24.1419 9.66599 25.0103C9.96032 25.4624 10.3595 25.8562 10.8943 26.064C11.4399 26.2761 12.0047 26.2473 12.5327 26.0713L11.8928 24.1518C11.7165 24.2105 11.6473 24.186 11.6272 24.1781C11.5963 24.1661 11.4981 24.116 11.3616 23.9064C11.0654 23.4513 10.7868 22.5527 10.6187 21.0777L8.60838 21.3069ZM11.2248 25.3295C12.1089 29.3358 13.944 33.1212 17.1201 35.2498L18.2466 33.5691C15.6867 31.8534 14.0313 28.6577 13.2006 24.8935L11.2248 25.3295ZM17.1207 35.2502C18.6099 36.2468 20.3689 36.8635 22.3994 36.9644L22.4999 34.9436C20.8357 34.8609 19.4308 34.3616 18.246 33.5687L17.1207 35.2502ZM22.4278 36.9655C25.9539 37.0416 31.9285 34.3445 34.5885 24.9902L32.6423 24.4368C30.1923 33.0524 24.9331 34.9957 22.4715 34.9426L22.4278 36.9655ZM33.2506 25.6571C33.6373 25.8065 34.1191 25.9508 34.6318 25.9198C35.1961 25.8856 35.7122 25.6452 36.1307 25.1845C36.5179 24.7583 36.7924 24.1772 37.0037 23.4858C37.218 22.7844 37.3894 21.8946 37.525 20.7842L35.5166 20.5389C35.3885 21.5872 35.2354 22.3491 35.0687 22.8945C34.8989 23.45 34.7358 23.7109 34.6331 23.824C34.5617 23.9025 34.5356 23.8985 34.5096 23.9001C34.4321 23.9048 34.2756 23.884 33.9801 23.7698L33.2506 25.6571ZM37.3646 21.2196C38.3968 19.6587 38.6884 17.9218 38.2607 16.5868C38.0447 15.9124 37.623 15.2907 36.9625 14.9301C36.2853 14.5604 35.4985 14.5425 34.7253 14.8209L35.4108 16.7246C35.7382 16.6067 35.9091 16.6602 35.9929 16.706C36.0934 16.7608 36.236 16.8987 36.3338 17.204C36.5339 17.8287 36.4513 18.9325 35.6769 20.1036L37.3646 21.2196ZM35.0681 16.7844H35.0715V14.7611H35.0681V16.7844ZM16.8481 33.8929C16.2726 35.0788 15.8105 35.6188 15.078 35.9621C14.2496 36.3503 12.9629 36.5432 10.5548 36.627L10.6252 38.6491C13.0073 38.5662 14.6873 38.3797 15.9367 37.7942C17.282 37.1636 18.0089 36.1352 18.6684 34.7763L16.8481 33.8929ZM10.586 36.6264C8.34507 36.6354 6.53942 37.0437 5.09405 37.7897C3.63992 38.5402 2.60402 39.6052 1.86996 40.8382C0.434528 43.2493 0.161707 46.3061 2.52657e-05 48.8728L2.01936 49C2.18428 46.3819 2.4575 43.8066 3.60852 41.8732C4.16769 40.934 4.93512 40.1486 6.02204 39.5877C7.11772 39.0221 8.59085 38.6577 10.5941 38.6497L10.586 36.6264ZM26.6869 34.7763C27.3051 36.0501 27.9869 37.0451 29.1997 37.6852C30.3461 38.2903 31.8488 38.5105 33.9182 38.6149L34.0202 36.5942C31.9629 36.4903 30.8613 36.2743 30.1441 35.8958C29.4934 35.5524 29.0526 35.0166 28.5072 33.8929L26.6869 34.7763Z" fill="#1D232E"/>
</svg>
