<svg width="22" height="19" viewBox="0 0 22 19" fill="none" xmlns="http://www.w3.org/2000/svg">
<path d="M21.0833 15.5833C21.0833 16.0695 20.8901 16.5358 20.5463 16.8796C20.2025 17.2235 19.7362 17.4166 19.2499 17.4166H2.75007C2.26384 17.4166 1.79753 17.2235 1.45372 16.8796C1.1099 16.5358 0.916749 16.0695 0.916749 15.5833V5.50004C0.916749 5.01382 1.1099 4.54751 1.45372 4.20369C1.79753 3.85988 2.26384 3.66673 2.75007 3.66673H6.4167L8.25002 0.916749H13.75L15.5833 3.66673H19.2499C19.7362 3.66673 20.2025 3.85988 20.5463 4.20369C20.8901 4.54751 21.0833 5.01382 21.0833 5.50004V15.5833Z" stroke="#1D232E" stroke-width="1.81818" stroke-linecap="round" stroke-linejoin="round"/>
<path d="M11 13.75C13.025 13.75 14.6666 12.1084 14.6666 10.0833C14.6666 8.05831 13.025 6.4167 11 6.4167C8.97497 6.4167 7.33336 8.05831 7.33336 10.0833C7.33336 12.1084 8.97497 13.75 11 13.75Z" stroke="#1D232E" stroke-width="1.81818" stroke-linecap="round" stroke-linejoin="round"/>
</svg>
