<svg width="17" height="17" viewBox="0 0 17 17" fill="none" xmlns="http://www.w3.org/2000/svg">
<path d="M15.5505 17L9.7005 11.1489C7.09811 12.9991 3.51212 12.5465 1.45099 10.1078C-0.610144 7.66913 -0.458801 4.05787 1.79915 1.80018C4.05651 -0.458505 7.66812 -0.610503 10.1073 1.45052C12.5464 3.51155 12.9992 7.09789 11.1489 9.7005L16.9989 15.5515L15.5515 16.9989L15.5505 17ZM6.14136 2.04788C4.20027 2.04744 2.52561 3.41 2.13129 5.31063C1.73697 7.21125 2.73138 9.12755 4.51245 9.89933C6.29352 10.6711 8.37173 10.0862 9.48886 8.49882C10.606 6.91141 10.455 4.75775 9.12727 3.34175L9.74657 3.95593L9.04845 3.25986L9.03617 3.24758C8.27028 2.47697 7.22783 2.04495 6.14136 2.04788Z" fill="#243A82"/>
</svg>
