<svg width="1" height="1" viewBox="0 0 1 1" fill="none" xmlns="http://www.w3.org/2000/svg">
<mask id="path-1-inside-1_0_287" fill="white">
<path d="M0.43827 0.999961C0.350952 0.999961 0.274339 0.979181 0.20843 0.937621C0.142942 0.896061 0.0917261 0.837919 0.0547838 0.763195C0.0182613 0.68847 0 0.601152 0 0.50124C0 0.400488 0.0182613 0.31254 0.0547838 0.237396C0.0917261 0.162252 0.142942 0.1039 0.20843 0.0623402C0.274339 0.0207801 0.350952 0 0.43827 0C0.525589 0 0.601992 0.0207801 0.667481 0.0623402C0.733389 0.1039 0.784605 0.162252 0.821127 0.237396C0.858069 0.31254 0.876541 0.400488 0.876541 0.50124C0.876541 0.601152 0.858069 0.68847 0.821127 0.763195C0.784605 0.837919 0.733389 0.896061 0.667481 0.937621C0.601992 0.979181 0.525589 0.999961 0.43827 0.999961ZM0.43827 0.866465C0.504599 0.866465 0.559172 0.849463 0.601992 0.81546C0.644811 0.781456 0.676506 0.736747 0.697076 0.681334C0.717647 0.62592 0.727932 0.565889 0.727932 0.50124C0.727932 0.436591 0.717647 0.37635 0.697076 0.320517C0.676506 0.264683 0.644811 0.219555 0.601992 0.185131C0.559172 0.150708 0.504599 0.133496 0.43827 0.133496C0.371942 0.133496 0.317368 0.150708 0.274549 0.185131C0.231729 0.219555 0.200034 0.264683 0.179464 0.320517C0.158894 0.37635 0.148609 0.436591 0.148609 0.50124C0.148609 0.565889 0.158894 0.62592 0.179464 0.681334C0.200034 0.736747 0.231729 0.781456 0.274549 0.81546C0.317368 0.849463 0.371942 0.866465 0.43827 0.866465Z"/>
</mask>
<path d="M0.43827 0.999961C0.350952 0.999961 0.274339 0.979181 0.20843 0.937621C0.142942 0.896061 0.0917261 0.837919 0.0547838 0.763195C0.0182613 0.68847 0 0.601152 0 0.50124C0 0.400488 0.0182613 0.31254 0.0547838 0.237396C0.0917261 0.162252 0.142942 0.1039 0.20843 0.0623402C0.274339 0.0207801 0.350952 0 0.43827 0C0.525589 0 0.601992 0.0207801 0.667481 0.0623402C0.733389 0.1039 0.784605 0.162252 0.821127 0.237396C0.858069 0.31254 0.876541 0.400488 0.876541 0.50124C0.876541 0.601152 0.858069 0.68847 0.821127 0.763195C0.784605 0.837919 0.733389 0.896061 0.667481 0.937621C0.601992 0.979181 0.525589 0.999961 0.43827 0.999961ZM0.43827 0.866465C0.504599 0.866465 0.559172 0.849463 0.601992 0.81546C0.644811 0.781456 0.676506 0.736747 0.697076 0.681334C0.717647 0.62592 0.727932 0.565889 0.727932 0.50124C0.727932 0.436591 0.717647 0.37635 0.697076 0.320517C0.676506 0.264683 0.644811 0.219555 0.601992 0.185131C0.559172 0.150708 0.504599 0.133496 0.43827 0.133496C0.371942 0.133496 0.317368 0.150708 0.274549 0.185131C0.231729 0.219555 0.200034 0.264683 0.179464 0.320517C0.158894 0.37635 0.148609 0.436591 0.148609 0.50124C0.148609 0.565889 0.158894 0.62592 0.179464 0.681334C0.200034 0.736747 0.231729 0.781456 0.274549 0.81546C0.317368 0.849463 0.371942 0.866465 0.43827 0.866465Z" fill="black"/>
<path d="M0.20843 0.937621L-0.386513 1.87511L-0.383802 1.87682L0.20843 0.937621ZM0.0547838 0.763195L-0.942777 1.25077L-0.94055 1.25527L0.0547838 0.763195ZM0.0547838 0.237396L-0.941651 -0.252471L-0.94384 -0.247968L0.0547838 0.237396ZM0.20843 0.0623402L-0.383804 -0.87686L-0.38651 -0.875143L0.20843 0.0623402ZM0.667481 0.0623402L0.0725375 0.999827L0.075249 1.00154L0.667481 0.0623402ZM0.821127 0.237396L-0.177507 0.722766L-0.175298 0.727259L0.821127 0.237396ZM0.821127 0.763195L-0.174217 0.271114L-0.176423 0.275628L0.821127 0.763195ZM0.667481 0.937621L0.0752462 -0.00157893L0.0725399 0.0001385L0.667481 0.937621ZM0.601992 0.81546L-0.0885011 -0.0540503L-0.0885012 -0.0540502L0.601992 0.81546ZM0.697076 0.681334L1.738 1.06774L1.738 1.06774L0.697076 0.681334ZM0.697076 0.320517L1.73895 -0.0633297L1.73894 -0.0633304L0.697076 0.320517ZM0.601992 0.185131L1.29768 -0.680231L1.29768 -0.680231L0.601992 0.185131ZM0.274549 0.185131L-0.421135 -0.680231L-0.421135 -0.680231L0.274549 0.185131ZM0.179464 0.320517L-0.862404 -0.0633302L-0.862405 -0.0633297L0.179464 0.320517ZM0.179464 0.681334L-0.861459 1.06774L-0.861459 1.06774L0.179464 0.681334ZM0.274549 0.81546L0.965042 -0.05405L0.965042 -0.0540503L0.274549 0.81546ZM0.43827 -0.110367C0.534508 -0.110367 0.668454 -0.084942 0.800662 -0.00157502L-0.383802 1.87682C-0.119777 2.0433 0.167396 2.11029 0.43827 2.11029V-0.110367ZM0.803371 0.000138573C0.922481 0.0757276 1.00391 0.177651 1.05012 0.271119L-0.94055 1.25527C-0.820457 1.49819 -0.636598 1.71639 -0.386511 1.8751L0.803371 0.000138573ZM1.05233 0.275628C1.10348 0.380273 1.11033 0.465764 1.11033 0.50124H-1.11033C-1.11033 0.736541 -1.06696 0.996668 -0.942767 1.25076L1.05233 0.275628ZM1.11033 0.50124C1.11033 0.5345 1.10399 0.618689 1.05341 0.722761L-0.94384 -0.247968C-1.06747 0.00639161 -1.11033 0.266477 -1.11033 0.50124H1.11033ZM1.05121 0.727259C1.00548 0.820273 0.924038 0.923245 0.803371 0.999823L-0.38651 -0.875143C-0.638155 -0.715445 -0.822029 -0.495769 -0.941641 -0.252466L1.05121 0.727259ZM0.800662 1.00154C0.668454 1.0849 0.534508 1.11033 0.43827 1.11033V-1.11033C0.167396 -1.11033 -0.119777 -1.04334 -0.383802 -0.876856L0.800662 1.00154ZM0.43827 1.11033C0.342171 1.11033 0.206658 1.08494 0.0725399 0.999823L1.26242 -0.875143C0.997326 -1.04338 0.709006 -1.11033 0.43827 -1.11033V1.11033ZM0.075249 1.00154C-0.0466993 0.924639 -0.130329 0.819808 -0.177497 0.722761L1.81975 -0.247968C1.69954 -0.495303 1.51348 -0.716839 1.25971 -0.876856L0.075249 1.00154ZM-0.175298 0.727259C-0.227008 0.622076 -0.233787 0.536242 -0.233787 0.50124H1.98687C1.98687 0.264734 1.94315 0.0030047 1.81755 -0.252466L-0.175298 0.727259ZM-0.233787 0.50124C-0.233787 0.464004 -0.226486 0.376865 -0.174207 0.271119L1.81646 1.25527C1.94262 1.00008 1.98687 0.738301 1.98687 0.50124H-0.233787ZM-0.176423 0.275628C-0.128762 0.178114 -0.0451305 0.0743328 0.0752487 -0.00157502L1.25971 1.87682C1.51191 1.71779 1.69797 1.49772 1.81868 1.25076L-0.176423 0.275628ZM0.0725399 0.0001385C0.206658 -0.0849745 0.342171 -0.110367 0.43827 -0.110367V2.11029C0.709006 2.11029 0.997326 2.04334 1.26242 1.8751L0.0725399 0.0001385ZM0.43827 1.97679C0.700207 1.97679 1.01408 1.90606 1.29249 1.68497L-0.0885012 -0.0540502C0.104267 -0.207131 0.30899 -0.243863 0.43827 -0.243863V1.97679ZM1.29248 1.68497C1.50683 1.51475 1.65282 1.2972 1.738 1.06774L-0.343846 0.29493C-0.299809 0.176299 -0.217212 0.048161 -0.0885011 -0.0540503L1.29248 1.68497ZM1.738 1.06774C1.80859 0.877582 1.83826 0.685424 1.83826 0.50124H-0.382396C-0.382396 0.446355 -0.373294 0.374259 -0.343847 0.294931L1.738 1.06774ZM1.83826 0.50124C1.83826 0.316956 1.80856 0.12563 1.73895 -0.0633297L-0.344792 0.704363C-0.373269 0.62707 -0.382396 0.556226 -0.382396 0.50124H1.83826ZM1.73894 -0.0633304C1.65475 -0.29185 1.51037 -0.50924 1.29768 -0.680231L-0.093692 1.05049C-0.220749 0.94835 -0.301741 0.821217 -0.344792 0.704364L1.73894 -0.0633304ZM1.29768 -0.680231C1.01912 -0.904167 0.703328 -0.976832 0.43827 -0.976832V1.24382C0.305869 1.24382 0.099224 1.20558 -0.0936916 1.05049L1.29768 -0.680231ZM0.43827 -0.976832C0.173213 -0.976832 -0.14258 -0.904168 -0.421135 -0.680231L0.970232 1.05049C0.777316 1.20558 0.570671 1.24382 0.43827 1.24382V-0.976832ZM-0.421135 -0.680231C-0.633832 -0.509239 -0.778213 -0.291849 -0.862404 -0.0633302L1.22133 0.704363C1.17828 0.821216 1.09729 0.948349 0.970233 1.05049L-0.421135 -0.680231ZM-0.862405 -0.0633297C-0.932021 0.12563 -0.961719 0.316955 -0.961719 0.50124H1.25894C1.25894 0.556227 1.24981 0.62707 1.22133 0.704363L-0.862405 -0.0633297ZM-0.961719 0.50124C-0.961719 0.685424 -0.932047 0.877582 -0.861459 1.06774L1.22039 0.294931C1.24983 0.374259 1.25894 0.446354 1.25894 0.50124H-0.961719ZM-0.861459 1.06774C-0.776281 1.29719 -0.630294 1.51475 -0.415944 1.68497L0.965042 -0.0540503C1.09375 0.0481614 1.17635 0.1763 1.22039 0.29493L-0.861459 1.06774ZM-0.415945 1.68497C-0.137537 1.90606 0.176334 1.97679 0.43827 1.97679V-0.243863C0.56755 -0.243863 0.772273 -0.207131 0.965042 -0.05405L-0.415945 1.68497Z" fill="black" mask="url(#path-1-inside-1_0_287)"/>
</svg>
