<svg width="49" height="50" viewBox="0 0 49 50" fill="none" xmlns="http://www.w3.org/2000/svg">
<path d="M16.648 10.4526L17.0735 9.54765L16.5889 9.31984L16.1307 9.59686L16.648 10.4526ZM27.3588 12.8672L27.7046 13.8055L28.3588 13.5644V12.8672H27.3588ZM26.3129 9.92802L26.6806 8.99805L23.9531 7.91984L25.4537 10.4397L26.3129 9.92802ZM35.6314 15.5911V16.5911C36.1009 16.5911 36.5071 16.2645 36.608 15.806L35.6314 15.5911ZM29.8405 3.89169L29.1698 4.63336C29.3432 4.79025 29.5662 4.88136 29.7999 4.89087L29.8405 3.89169ZM11.3279 15.8097L11.3445 16.8096C11.6352 16.8047 11.9095 16.6736 12.0958 16.4503C12.2821 16.227 12.3619 15.9336 12.3145 15.6467L11.3279 15.8097ZM10.467 20.9482L11.4606 20.8349C11.4475 20.7197 11.4144 20.6077 11.3629 20.5038L10.467 20.9482ZM13.0363 24.8222L14.0128 24.6067C13.9517 24.33 13.7761 24.0922 13.5296 23.9524C13.2831 23.8125 12.9889 23.7839 12.72 23.8735L13.0363 24.8222ZM18.4438 34.0129L17.887 34.8436L17.8876 34.844L18.4438 34.0129ZM23.1551 35.5396L23.1055 36.5384C23.1148 36.5389 23.1242 36.5392 23.1336 36.5394L23.1551 35.5396ZM34.1921 24.4287L34.5526 23.496C34.2904 23.3946 33.9976 23.4083 33.7459 23.5338C33.4943 23.6592 33.3071 23.8848 33.2302 24.1552L34.1921 24.4287ZM37.064 20.4235L36.2298 19.872C36.1444 20.0012 36.0901 20.1485 36.0713 20.3023L37.064 20.4235ZM35.628 15.5911L35.2892 14.6503C34.832 14.8149 34.5593 15.2844 34.6429 15.7631C34.7265 16.2418 35.1421 16.5911 35.628 16.5911V15.5911ZM11.4323 37.2043L11.4363 38.2043C11.4465 38.2042 11.4568 38.204 11.467 38.2037L11.4323 37.2043ZM16.2226 11.3576C17.8361 12.1162 19.6657 13.1519 21.4934 13.7601C23.3906 14.3914 25.4537 14.635 27.7046 13.8055L27.013 11.9289C25.3125 12.5555 23.737 12.3989 22.1249 11.8624C20.4435 11.3029 18.8935 10.4033 17.0735 9.54765L16.2226 11.3576ZM28.3588 12.8672C28.3588 11.7014 27.8218 10.5073 27.1721 9.41635L25.4537 10.4397C26.0617 11.4606 26.3588 12.2641 26.3588 12.8672H28.3588ZM25.9453 10.858C29.6788 12.3339 31.637 14.0444 31.846 16.0905L33.8357 15.8873C33.4981 12.5824 30.4359 10.4826 26.6806 8.99805L25.9453 10.858ZM15.1176 16.0558C15.0442 14.8309 15.1834 13.8803 15.5087 13.1329C15.8266 12.4026 16.3497 11.8015 17.1654 11.3084L16.1307 9.59686C14.9933 10.2844 14.1728 11.1908 13.6749 12.3348C13.1844 13.4617 13.0359 14.7524 13.1212 16.1756L15.1176 16.0558ZM36.608 15.806C37.5363 11.5872 37.5502 8.40839 36.3869 6.22126C35.1614 3.91723 32.8153 3.01181 29.8812 2.89252L29.7999 4.89087C32.4077 4.99689 33.8768 5.76112 34.6211 7.16045C35.4276 8.67668 35.566 11.235 34.6547 15.3762L36.608 15.806ZM30.5113 3.15002C26.0462 -0.888124 20.4423 -0.761048 16.2595 1.93281C12.0919 4.61695 9.32812 9.83965 10.3413 15.9727L12.3145 15.6467C11.4344 10.3191 13.8293 5.87691 17.3425 3.61426C20.8405 1.36134 25.4395 1.25974 29.1698 4.63336L30.5113 3.15002ZM11.3114 14.8098C10.7153 14.8197 10.1002 14.9212 9.57309 15.2236C9.00867 15.5474 8.61893 16.0607 8.45594 16.7241C8.30299 17.3467 8.36149 18.0469 8.5492 18.7881C8.73918 19.5382 9.08036 20.403 9.57118 21.3925L11.3629 20.5038C10.9087 19.5882 10.6311 18.8624 10.488 18.2971C10.3426 17.7229 10.3536 17.383 10.3982 17.2013C10.4328 17.0606 10.4857 17.0058 10.5684 16.9584C10.6884 16.8895 10.925 16.8165 11.3445 16.8096L11.3114 14.8098ZM9.47346 21.0614C9.64691 22.583 9.96008 23.8638 10.5189 24.7221C10.8098 25.169 11.2044 25.5583 11.733 25.7637C12.2723 25.9733 12.8306 25.9448 13.3525 25.7709L12.72 23.8735C12.5458 23.9316 12.4774 23.9073 12.4575 23.8996C12.4269 23.8877 12.3299 23.8381 12.195 23.6309C11.9021 23.1811 11.6268 22.2928 11.4606 20.8349L9.47346 21.0614ZM12.0598 25.0377C12.9336 28.9977 14.7476 32.7394 17.887 34.8436L19.0005 33.1822C16.4701 31.4863 14.8338 28.3274 14.0128 24.6067L12.0598 25.0377ZM17.8876 34.844C19.3596 35.8291 21.0984 36.4386 23.1055 36.5384L23.2048 34.5409C21.5598 34.4591 20.1711 33.9656 18.9999 33.1818L17.8876 34.844ZM23.1336 36.5394C26.619 36.6147 32.5246 33.9487 35.154 24.7022L33.2302 24.1552C30.8085 32.6714 25.61 34.5924 23.1767 34.5399L23.1336 36.5394ZM33.8315 25.3615C34.2137 25.5092 34.69 25.6518 35.1968 25.6211C35.7546 25.5873 36.2647 25.3497 36.6784 24.8943C37.0612 24.473 37.3325 23.8987 37.5413 23.2152C37.7532 22.5219 37.9225 21.6423 38.0566 20.5448L36.0713 20.3023C35.9448 21.3385 35.7934 22.0916 35.6286 22.6307C35.4608 23.1798 35.2996 23.4378 35.1981 23.5495C35.1275 23.6271 35.1017 23.6232 35.076 23.6247C34.9994 23.6294 34.8447 23.6089 34.5526 23.496L33.8315 25.3615ZM37.8981 20.9751C38.9183 19.4323 39.2066 17.7154 38.7839 16.3958C38.5703 15.7291 38.1535 15.1146 37.5006 14.7582C36.8312 14.3927 36.0535 14.375 35.2892 14.6503L35.9668 16.532C36.2904 16.4154 36.4593 16.4683 36.5422 16.5136C36.6415 16.5678 36.7825 16.7041 36.8792 17.0059C37.077 17.6233 36.9953 18.7144 36.2298 19.872L37.8981 20.9751ZM35.628 16.5911H35.6314V14.5911H35.628V16.5911ZM17.6181 33.5023C17.0493 34.6745 16.5925 35.2082 15.8685 35.5476C15.0496 35.9314 13.7778 36.122 11.3975 36.2049L11.467 38.2037C13.8217 38.1217 15.4823 37.9374 16.7172 37.3586C18.047 36.7353 18.7656 35.7188 19.4175 34.3755L17.6181 33.5023ZM11.4282 36.2043C9.21319 36.2132 7.42837 36.6167 5.99966 37.3541C4.5623 38.096 3.53834 39.1487 2.81275 40.3675C1.39387 42.7508 1.1242 45.7724 0.96438 48.3095L2.96042 48.4352C3.12344 45.8473 3.39351 43.3017 4.53126 41.3906C5.08399 40.4622 5.84256 39.6859 6.91695 39.1314C8 38.5724 9.45613 38.2122 11.4363 38.2043L11.4282 36.2043ZM27.3435 34.3755C27.9545 35.6346 28.6285 36.6182 29.8273 37.2509C30.9605 37.8489 32.4459 38.0666 34.4914 38.1699L34.5922 36.1724C32.5587 36.0698 31.4697 35.8562 30.7609 35.4821C30.1177 35.1426 29.6819 34.613 29.1428 33.5023L27.3435 34.3755Z" fill="#1D232E"/>
<path opacity="0.8" d="M30.3116 16.7546C31.4852 16.7008 33.8964 16.5495 34.9658 17.4743C36.0352 18.3991 35.3559 22.3942 34.0174 23.6283C32.6757 24.8625 29.5751 24.8457 27.9037 23.9949C26.2324 23.1441 25.5397 19.8384 25.9297 18.6345C26.3198 17.4306 26.8478 16.916 30.3116 16.7546Z" fill="#46425B" fill-opacity="0.8"/>
<path opacity="0.8" d="M16.7121 16.7546C15.5385 16.7008 13.1273 16.5495 12.0579 17.4743C10.9885 18.3991 11.6679 22.3942 13.0063 23.6283C14.3481 24.8625 17.4486 24.8457 19.12 23.9949C20.7913 23.1441 21.4841 19.8384 21.094 18.6345C20.7039 17.4306 20.1759 16.916 16.7121 16.7546Z" fill="#46425B" fill-opacity="0.8"/>
<path d="M36.9126 16.2131C35.4901 15.8566 31.5993 15.4901 30.1701 15.5574C27.009 15.7087 25.8589 16.1089 25.2805 16.9328C25.0384 17.0404 24.4398 17.2489 23.4679 17.2489C22.3918 17.2489 21.7629 16.9866 21.5847 16.8991C20.976 16.1627 19.7855 15.7961 16.796 15.6549C15.3701 15.5876 11.4793 15.9542 10.0534 16.3106C9.61287 16.4216 9.6734 17.676 9.94916 17.8038C10.4368 18.0257 10.4771 19.1926 10.6184 20.2519C10.8168 21.7417 11.6171 23.5946 12.2864 24.2268C13.9173 25.7637 17.6905 25.7468 19.7217 24.6842C21.3392 23.8401 22.2001 21.0624 22.2472 19.2061C22.4893 18.9976 22.876 18.7891 23.4612 18.7891C24.0867 18.7891 24.4768 19.0043 24.7088 19.2195C24.7861 21.0758 25.647 23.7628 27.2309 24.59C29.2621 25.6527 33.0353 25.6695 34.6662 24.1327C35.3355 23.5005 36.1358 21.6475 36.3342 20.1578C36.4755 19.0985 36.5158 17.9315 37.0034 17.7096C37.2826 17.5852 37.3431 16.3274 36.8992 16.2165L36.9126 16.2131ZM19.1197 23.9914C17.4484 24.8422 14.3444 24.8591 13.006 23.6249C11.6642 22.3907 10.9883 18.3956 12.0577 17.4708C13.1271 16.546 15.5382 16.6974 16.7119 16.7512C20.1756 16.9126 20.7036 17.4271 21.0937 18.631C21.4838 19.8349 20.7911 23.1406 19.1197 23.9914ZM34.0138 23.6249C32.6721 24.8591 29.5715 24.8422 27.9002 23.9914C26.2288 23.1406 25.5361 19.8349 25.9262 18.631C26.3162 17.4271 26.8442 16.9126 30.308 16.7512C31.4816 16.6974 33.8928 16.546 34.9622 17.4708C36.0316 18.3956 35.3523 22.3907 34.0138 23.6249Z" fill="#1D232E"/>
<g style="mix-blend-mode:overlay" opacity="0.2">
<path d="M14.5563 22.0141C14.5563 19.9123 15.8779 18.1199 17.7375 17.4238C17.4349 17.3969 17.0918 17.3733 16.7118 17.3565C15.6929 17.3094 13.5978 17.1783 12.6697 17.982C11.7415 18.7857 12.33 22.2562 13.4936 23.329C13.8669 23.672 14.3948 23.904 14.9901 24.0352C14.7109 23.4198 14.5529 22.7371 14.5529 22.0141H14.5563Z" fill="#1D232E"/>
</g>
<g style="mix-blend-mode:overlay" opacity="0.2">
<path d="M28.9699 22.0646C28.9699 19.8417 30.4361 17.9585 32.4571 17.333C31.7711 17.2994 31.1053 17.333 30.6479 17.3566C27.6079 17.4978 27.1438 17.9484 26.8008 19.0077C26.4578 20.0637 27.0665 22.9659 28.5327 23.7124C28.7815 23.8402 29.0674 23.9445 29.3768 24.0285C29.1178 23.4266 28.9699 22.7641 28.9699 22.0646Z" fill="#1D232E"/>
</g>
<path d="M46.6484 36.6294L35.8872 47.3906M35.8872 36.6294L46.6484 47.3906" stroke="#D90202" stroke-width="2.01772" stroke-linecap="round" stroke-linejoin="round"/>
</svg>
