<svg width="18" height="19" viewBox="0 0 18 19" fill="none" xmlns="http://www.w3.org/2000/svg">
<path d="M8.55356 19C3.83171 18.9942 0.00518549 14.7443 0 9.50001V9.31001C0.0940306 4.08932 3.96422 -0.0684244 8.66534 0.000853306C13.3664 0.070131 17.136 4.34045 17.1052 9.56208C17.0745 14.7837 13.2551 18.999 8.55356 19ZM8.53988 17.1H8.55356C12.3314 17.0958 15.3915 13.6921 15.3896 9.49621C15.3877 5.30034 12.3246 1.90002 8.54672 1.90002C4.76885 1.90002 1.70576 5.30034 1.70387 9.49621C1.70198 13.6921 4.76201 17.0958 8.53988 17.1ZM11.1196 13.3H9.40892V5.70001H11.1196V13.3ZM7.69821 13.3H5.98749V5.70001H7.69821V13.3Z" fill="white"/>
</svg>
