<svg width="30" height="18" viewBox="0 0 30 18" fill="none" xmlns="http://www.w3.org/2000/svg">
<path d="M8.23985 3.32046L8.60394 3.76481M12.9576 3.75086C12.9528 3.22062 12.9446 2.82406 12.9372 2.63259C12.9182 2.14043 13.0854 0.715277 9.76381 0.492952C6.44225 0.270627 7.05791 0.614566 5.28692 1.72239C3.98337 2.63259 3.2632 2.07773 2.06416 2.48437C-0.0754735 3.36987 -0.506821 12.5441 3.17199 12.7417C5.69979 12.6717 4.5553 13.1953 8.12961 13.6059M12.9576 3.75086C12.965 4.5835 12.9639 5.74579 12.9372 6.96127C12.8935 8.95079 9.47878 9.0743 9.49398 7.05248C9.50918 5.03065 9.50729 4.86723 9.50729 4.86723L8.60394 3.76481M12.9576 3.75086H28.9673C29.3009 3.75086 29.5713 4.02127 29.5713 4.35485V16.8877C29.5713 17.2212 29.3009 17.4916 28.9673 17.4916H8.7336C8.40002 17.4916 8.12961 17.2212 8.12961 16.8877V13.6059M8.12961 13.6059V4.35485C8.12961 4.06578 8.33268 3.82414 8.60394 3.76481" stroke="#002260" stroke-width="0.853183" stroke-linecap="round" stroke-linejoin="round"/>
<path d="M16.9373 6.17698H24.3298V7.59861H16.9373V6.17698Z" fill="#97D1FF"/>
<path d="M20.3492 8.51449H16.9373V9.08315H20.3492V8.51449Z" fill="#97D1FF"/>
<path d="M16.9373 9.99907H21.6287V10.5677H16.9373V9.99907Z" fill="#97D1FF"/>
<path d="M27.4573 11.4836H16.9373V12.0523H27.4573V11.4836Z" fill="#97D1FF"/>
<path d="M16.9373 12.9682H25.4671V13.5368H16.9373V12.9682Z" fill="#97D1FF"/>
<path d="M25.4671 14.4527H16.9373V15.0214H25.4671V14.4527Z" fill="#97D1FF"/>
<path d="M11.5074 9.19305C11.3006 9.19305 10.5456 9.26234 10.0926 8.96034V15.6355H15.6549V8.21904H13.3492C12.9556 8.85496 12.197 9.19305 11.5074 9.19305Z" fill="#FF393E"/>
<path d="M13.6399 5.87394C13.8453 6.07363 13.9728 6.35291 13.9728 6.66199C13.9728 6.98871 13.8303 7.28214 13.604 7.48346C13.6124 7.415 13.6175 7.34441 13.6191 7.27168C13.6297 6.79183 13.6363 6.3203 13.6399 5.87394Z" fill="#FF393E"/>
</svg>
