<svg width="38" height="43" viewBox="0 0 38 43" fill="none" xmlns="http://www.w3.org/2000/svg">
<path d="M34.286 39.7391C32.0572 34.8909 31.9326 27.824 34.286 24.5716C40.2553 15.9122 34.791 8.68368 32.717 6.33028C26.7511 -0.541364 13.9538 0.118532 9.37836 3.3877C6.14286 5.93637 2.47978 10.0876 3.8871 18.1646C4.61433 21.3799 4.65474 21.3732 3.10264 23.0027C1.02869 25.9015 0.836778 26.9486 1.09939 27.6657C1.88049 28.3424 3.33832 28.1135 4.87021 27.9721C4.25409 28.9552 3.7154 29.9181 3.31138 30.8474C3.23058 31.0292 3.32148 31.2446 3.50665 31.312C3.90393 31.45 4.34499 31.4601 4.749 31.4029C5.05538 31.3625 5.25403 31.7093 5.05875 31.9483C4.77258 32.2917 4.53017 32.6688 4.49313 33.0459C4.47967 33.1772 4.547 33.3051 4.66483 33.3691L5.5301 33.8573C5.21699 36.0255 5.5402 38.2038 7.0115 38.6617C9.19992 39.0691 12.9539 38.9243 16.5227 37.6517C18.4822 36.9547 20.3811 35.9144 21.9365 34.4431" stroke="#1D232E" stroke-width="2" stroke-linecap="round" stroke-linejoin="round"/>
<path d="M18.6607 41.5708C18.4554 39.4329 17.6103 38.3117 16.3511 37.8437" stroke="#1D232E" stroke-width="2" stroke-linecap="round" stroke-linejoin="round"/>
</svg>
