<svg width="14" height="15" viewBox="0 0 14 15" fill="none" xmlns="http://www.w3.org/2000/svg">
<path d="M10.5 14.9999H2.99999C2.17156 14.9999 1.49999 14.3284 1.49999 13.4999V3.74998H0V2.24999H2.99999V1.49999C2.99999 0.67157 3.67156 0 4.49998 0H8.99996C9.82839 0 10.5 0.67157 10.5 1.49999V2.24999H13.4999V3.74998H12V13.4999C12 14.3284 11.3284 14.9999 10.5 14.9999ZM2.99999 3.74998V13.4999H10.5V3.74998H2.99999ZM4.49998 1.49999V2.24999H8.99996V1.49999H4.49998ZM8.99996 12H7.49997V5.24998H8.99996V12ZM5.99998 12H4.49998V5.24998H5.99998V12Z" fill="#002260"/>
</svg>
