<svg width="18" height="19" viewBox="0 0 18 19" fill="none" xmlns="http://www.w3.org/2000/svg">
<path d="M8.55357 19C3.82956 19 0 14.7467 0 9.5C0 4.25329 3.82956 0 8.55357 0C13.2776 0 17.1071 4.25329 17.1071 9.5C17.102 14.7443 13.2754 18.9942 8.55357 19ZM1.71071 9.6634C1.75119 13.8446 4.82516 17.2041 8.58996 17.1817C12.3548 17.1591 15.396 13.7631 15.396 9.5817C15.396 5.40028 12.3548 2.00429 8.58996 1.9817C4.82516 1.95933 1.75119 5.31882 1.71071 9.5V9.6634ZM6.84286 13.775V5.225L11.975 9.5L6.84286 13.775Z" fill="white"/>
</svg>
