<svg width="24" height="17" viewBox="0 0 24 17" fill="none" xmlns="http://www.w3.org/2000/svg">
<circle cx="5.19417" cy="5.32007" r="1.10364" fill="#97D1FF"/>
<rect x="2.40166" y="6.88358" width="5.58536" height="7.44715" fill="#97D1FF"/>
<rect x="9.27489" y="4.83314" width="7.42308" height="1.42752" fill="#97D1FF"/>
<rect x="9.27489" y="7.18023" width="3.42604" height="0.571006" fill="#97D1FF"/>
<rect x="9.27489" y="8.67087" width="4.7108" height="0.571006" fill="#97D1FF"/>
<rect x="9.27489" y="10.1618" width="10.5636" height="0.571006" fill="#97D1FF"/>
<rect x="9.27489" y="11.6524" width="8.56509" height="0.571006" fill="#97D1FF"/>
<rect x="9.27489" y="13.1431" width="8.56509" height="0.571006" fill="#97D1FF"/>
<path d="M1.03706 16.1946H21.3546C21.6895 16.1946 21.961 15.923 21.961 15.5881V8.28934C21.961 8.11029 21.8819 7.94039 21.7449 7.82515L15.4589 2.53916C15.3496 2.44725 15.2113 2.39686 15.0685 2.39686H1.03705C0.702098 2.39686 0.430562 2.66839 0.430562 3.00335V15.5881C0.430562 15.923 0.702099 16.1946 1.03706 16.1946Z" stroke="#002260" stroke-width="0.853183"/>
<path d="M19.4497 0.122455V3.78984L17.4123 0.122455H19.4497Z" fill="#FF393E"/>
<path d="M21.7588 0.122455L19.9251 3.99358L23.7283 2.36363L21.7588 0.122455Z" fill="#FF393E"/>
<path d="M23.9321 4.46898H20.2647L23.9321 6.50642V4.46898Z" fill="#FF393E"/>
<path d="M19.4497 0.122455V3.78984L17.4123 0.122455H19.4497Z" stroke="#FF393E" stroke-width="0.13459"/>
<path d="M21.7588 0.122455L19.9251 3.99358L23.7283 2.36363L21.7588 0.122455Z" stroke="#FF393E" stroke-width="0.13459"/>
<path d="M23.9321 4.46898H20.2647L23.9321 6.50642V4.46898Z" stroke="#FF393E" stroke-width="0.13459"/>
</svg>
