<svg width="12" height="14" viewBox="0 0 12 14" fill="none" xmlns="http://www.w3.org/2000/svg">
<path d="M10.6667 13.3333H1.33333C0.596954 13.3333 0 12.7364 0 12V2.66667C0 1.93029 0.596954 1.33333 1.33333 1.33333H2.66667V0H4V1.33333H8V0H9.33333V1.33333H10.6667C11.403 1.33333 12 1.93029 12 2.66667V12C12 12.7364 11.403 13.3333 10.6667 13.3333ZM1.33333 5.33333V12H10.6667V5.33333H1.33333ZM1.33333 2.66667V4H10.6667V2.66667H1.33333ZM9.33333 10.6667H8V9.33333H9.33333V10.6667ZM6.66667 10.6667H5.33333V9.33333H6.66667V10.6667ZM4 10.6667H2.66667V9.33333H4V10.6667ZM9.33333 8H8V6.66667H9.33333V8ZM6.66667 8H5.33333V6.66667H6.66667V8ZM4 8H2.66667V6.66667H4V8Z" fill="#1D232E"/>
</svg>
