<svg width="10" height="13" viewBox="0 0 10 13" fill="none" xmlns="http://www.w3.org/2000/svg">
<path d="M5.00018 12.8602C4.09795 12.0907 3.26168 11.247 2.50009 10.338C1.35719 8.97297 6.31209e-07 6.94004 6.31209e-07 5.00283C-0.00101238 2.97957 1.21736 1.15511 3.08659 0.380806C4.95581 -0.393502 7.10744 0.0349675 8.53744 1.46627C9.4778 2.40246 10.0046 3.67591 10.0004 5.00283C10.0004 6.94004 8.64316 8.97297 7.50026 10.338C6.73868 11.247 5.9024 12.0907 5.00018 12.8602ZM5.00018 1.43127C3.02864 1.43363 1.43098 3.03129 1.42862 5.00283C1.42862 5.83571 1.80506 7.27791 3.59656 9.42155C4.0381 9.94875 4.5066 10.4528 5.00018 10.9316C5.4938 10.4533 5.96252 9.95004 6.40451 9.4237C8.19529 7.27719 8.57173 5.835 8.57173 5.00283C8.56937 3.03129 6.97171 1.43363 5.00018 1.43127ZM5.00018 7.14576C3.81667 7.14576 2.85724 6.18633 2.85724 5.00283C2.85724 3.81932 3.81667 2.85989 5.00018 2.85989C6.18368 2.85989 7.14311 3.81932 7.14311 5.00283C7.14311 5.57117 6.91734 6.11623 6.51546 6.51811C6.11358 6.91999 5.56852 7.14576 5.00018 7.14576Z" fill="#1D232E"/>
</svg>
