<svg width="70" height="42" viewBox="0 0 70 42" fill="none" xmlns="http://www.w3.org/2000/svg">
<path d="M19.2263 7.74797L20.0759 8.78477M30.2344 8.75222C30.2233 7.515 30.204 6.5897 30.1868 6.14293C30.1424 4.99457 30.5326 1.6692 22.7823 1.15044C15.0319 0.631685 16.4685 1.43421 12.3362 4.01913C9.29458 6.14293 7.61416 4.84825 4.81642 5.79709C-0.176065 7.86325 -1.18254 29.2698 7.40134 29.7309C13.2996 29.5675 10.6291 30.7894 18.9691 31.7474M30.2344 8.75222C30.2518 10.695 30.2491 13.4071 30.1868 16.2432C30.0848 20.8854 22.1172 21.1736 22.1527 16.456C22.1881 11.7384 22.1837 11.3571 22.1837 11.3571L20.0759 8.78477M30.2344 8.75222H67.5904C68.3687 8.75222 68.9997 9.38319 68.9997 10.1615V39.4047C68.9997 40.1831 68.3687 40.8141 67.5904 40.8141H20.3784C19.6001 40.8141 18.9691 40.1831 18.9691 39.4047V31.7474M18.9691 31.7474V10.1615C18.9691 9.48704 19.443 8.92321 20.0759 8.78477" stroke="#1D232E" stroke-width="2" stroke-linecap="round" stroke-linejoin="round"/>
<path d="M39.5204 14.4131H56.7694V17.7302H39.5204V14.4131Z" fill="#97D1FF"/>
<path d="M47.4815 19.8673H39.5204V21.1942H47.4815V19.8673Z" fill="#97D1FF"/>
<path d="M39.5204 23.3313H50.4669V24.6582H39.5204V23.3313Z" fill="#97D1FF"/>
<path d="M64.0671 26.7952H39.5204V28.1221H64.0671V26.7952Z" fill="#97D1FF"/>
<path d="M39.5204 30.2593H59.4231V31.5861H39.5204V30.2593Z" fill="#97D1FF"/>
<path d="M59.4231 33.7232H39.5204V35.05H59.4231V33.7232Z" fill="#97D1FF"/>
<path d="M26.8506 21.4506C26.368 21.4506 24.6064 21.6123 23.5494 20.9076V36.4829H36.5281V19.1779H31.1482C30.2298 20.6617 28.4596 21.4506 26.8506 21.4506Z" fill="#FF393E"/>
<path d="M31.8264 13.706C32.3056 14.172 32.6033 14.8236 32.6033 15.5448C32.6033 16.3071 32.2707 16.9918 31.7426 17.4616C31.7623 17.3018 31.7743 17.1371 31.778 16.9674C31.8026 15.8477 31.8179 14.7475 31.8264 13.706Z" fill="#FF393E"/>
</svg>
