<svg width="61" height="35" viewBox="0 0 61 35" fill="none" xmlns="http://www.w3.org/2000/svg">
<circle cx="12.1064" cy="7.81624" r="2.57221" fill="#97D1FF"/>
<rect x="5.59752" y="11.4603" width="13.0176" height="17.3567" fill="#97D1FF"/>
<rect x="21.6155" y="6.68114" width="17.3007" height="3.32705" fill="#97D1FF"/>
<rect x="21.6155" y="12.1515" width="7.98492" height="1.33082" fill="#97D1FF"/>
<rect x="21.6155" y="15.626" width="10.9793" height="1.33082" fill="#97D1FF"/>
<rect x="21.4994" y="19.0258" width="17.6691" height="1.41353" fill="#97D1FF"/>
<rect x="21.4994" y="22.5596" width="17.6691" height="1.41353" fill="#97D1FF"/>
<rect x="21.4994" y="26.0935" width="17.6691" height="1.41353" fill="#97D1FF"/>
<path d="M51.1836 12.3116V2.41692C51.1836 1.63625 50.5507 1.00339 49.77 1.00339H2.41692C1.63625 1.00339 1.00339 1.63625 1.00339 2.41692V31.7476C1.00339 32.5282 1.63625 33.1611 2.41691 33.1611H40.2287" stroke="#1D232E" stroke-width="2" stroke-linecap="round"/>
<path d="M51.1836 29.049C53.4015 29.049 55.1993 27.2511 55.1993 25.0333C55.1993 22.8155 53.4015 21.0176 51.1836 21.0176C48.9658 21.0176 47.1679 22.8155 47.1679 25.0333C47.1679 27.2511 48.9658 29.049 51.1836 29.049Z" fill="#FF393E"/>
<path d="M51.1836 16.1988V17.805M51.1836 32.2616V33.8678M44.935 18.7848L46.0755 19.9253M56.2919 30.1413L57.4324 31.2817M42.3491 25.0333H43.9554M58.4119 25.0333H60.0182M44.935 31.2817L46.0755 30.1413M56.2919 19.9253L57.4324 18.7848M55.1993 25.0333C55.1993 27.2511 53.4015 29.049 51.1836 29.049C48.9658 29.049 47.1679 27.2511 47.1679 25.0333C47.1679 22.8155 48.9658 21.0176 51.1836 21.0176C53.4015 21.0176 55.1993 22.8155 55.1993 25.0333Z" stroke="#FF393E" stroke-width="1.9566" stroke-linecap="round" stroke-linejoin="round"/>
</svg>
